<svg width="16" height="16" viewBox="0 0 16 16" fill="none" xmlns="http://www.w3.org/2000/svg">
<path d="M7.475 15.45C7.34167 15.3167 7.275 15.1417 7.275 14.925C7.275 14.7083 7.34167 14.5333 7.475 14.4L13.125 8.75001H0.75C0.533333 8.75001 0.354167 8.67918 0.2125 8.53751C0.0708334 8.39585 0 8.21668 0 8.00001C0 7.78335 0.0708334 7.60418 0.2125 7.46251C0.354167 7.32085 0.533333 7.25001 0.75 7.25001H13.125L7.475 1.60001C7.34167 1.46668 7.275 1.28751 7.275 1.06251C7.275 0.837512 7.34167 0.658346 7.475 0.525012C7.60833 0.391679 7.78333 0.325012 8 0.325012C8.21667 0.325012 8.39167 0.391679 8.525 0.525012L15.475 7.47501C15.5583 7.55835 15.6167 7.64168 15.65 7.72501C15.6833 7.80835 15.7 7.90001 15.7 8.00001C15.7 8.08335 15.6833 8.17085 15.65 8.26251C15.6167 8.35418 15.5583 8.44168 15.475 8.52501L8.525 15.475C8.39167 15.6083 8.21667 15.6708 8 15.6625C7.78333 15.6542 7.60833 15.5833 7.475 15.45Z" fill="#0094D9"/>
</svg>
