<svg width="16" height="9" viewBox="0 0 16 9" fill="none" xmlns="http://www.w3.org/2000/svg">
<path d="M8 8.84376C7.875 8.84376 7.76042 8.82293 7.65625 8.78126C7.55209 8.73959 7.44792 8.66668 7.34375 8.56251L1.15625 2.37501C0.989587 2.20834 0.911462 1.98439 0.921879 1.70314C0.932295 1.42189 1.02084 1.19793 1.1875 1.03126C1.39584 0.822927 1.6198 0.734386 1.85938 0.765636C2.09896 0.796886 2.3125 0.895844 2.5 1.06251L8 6.56251L13.5 1.06251C13.6667 0.895844 13.8906 0.802094 14.1719 0.781261C14.4531 0.760427 14.6771 0.854177 14.8438 1.06251C15.0521 1.22918 15.1406 1.44793 15.1094 1.71876C15.0781 1.98959 14.9792 2.21876 14.8125 2.40626L8.65625 8.56251C8.55209 8.66668 8.44792 8.73959 8.34375 8.78126C8.23959 8.82293 8.125 8.84376 8 8.84376Z" fill="#58595B"/>
</svg>
