<svg width="16" height="16" viewBox="0 0 16 16" fill="none" xmlns="http://www.w3.org/2000/svg">
<path d="M0.394164 7.61953C0.527497 7.4862 0.702499 7.41953 0.919165 7.41953C1.13583 7.41953 1.31083 7.4862 1.44416 7.61953L7.09416 13.2695L7.09416 0.894531C7.09416 0.677864 7.165 0.498698 7.30666 0.357031C7.44833 0.215364 7.6275 0.144531 7.84416 0.144531C8.06083 0.144531 8.24 0.215364 8.38167 0.357031C8.52333 0.498698 8.59416 0.677864 8.59416 0.894531L8.59416 13.2695L14.2442 7.61953C14.3775 7.4862 14.5567 7.41953 14.7817 7.41953C15.0067 7.41953 15.1858 7.4862 15.3192 7.61953C15.4525 7.75287 15.5192 7.92787 15.5192 8.14453C15.5192 8.3612 15.4525 8.5362 15.3192 8.66953L8.36916 15.6195C8.28583 15.7029 8.2025 15.7612 8.11916 15.7945C8.03583 15.8279 7.94416 15.8445 7.84416 15.8445C7.76083 15.8445 7.67333 15.8279 7.58166 15.7945C7.49 15.7612 7.4025 15.7029 7.31916 15.6195L0.369164 8.66953C0.235831 8.5362 0.173331 8.3612 0.181664 8.14453C0.189997 7.92786 0.260831 7.75287 0.394164 7.61953Z" fill="#0094D9"/>
</svg>
