<svg width="14" height="14" viewBox="0 0 14 14" fill="none" xmlns="http://www.w3.org/2000/svg">
<path d="M0.812816 13.1872C0.621308 12.9957 0.525553 12.7747 0.525554 12.5243C0.525552 12.2738 0.621307 12.0529 0.812816 11.8614L5.67417 7.00001L0.812816 2.13865C0.621308 1.94714 0.525553 1.72617 0.525554 1.47574C0.525554 1.2253 0.621308 1.00433 0.812816 0.812825C1.00432 0.621317 1.2253 0.525563 1.47573 0.525563C1.72616 0.525563 1.94713 0.621317 2.13864 0.812825L7 5.67418L11.8614 0.812825C12.0529 0.621317 12.2738 0.525563 12.5243 0.525563C12.7747 0.525563 12.9957 0.621317 13.1872 0.812825C13.3787 1.00433 13.4744 1.2253 13.4744 1.47574C13.4744 1.72617 13.3787 1.94714 13.1872 2.13865L8.32583 7.00001L13.1872 11.8614C13.3787 12.0529 13.4744 12.2738 13.4744 12.5243C13.4744 12.7747 13.3787 12.9957 13.1872 13.1872C12.9957 13.3787 12.7747 13.4745 12.5243 13.4745C12.2738 13.4745 12.0529 13.3787 11.8614 13.1872L7 8.32583L2.13864 13.1872C1.94713 13.3787 1.72616 13.4745 1.47573 13.4745C1.22529 13.4745 1.00432 13.3787 0.812816 13.1872Z" fill="#0094D9"/>
</svg>
