<svg width="18" height="18" viewBox="0 0 18 18" fill="none" xmlns="http://www.w3.org/2000/svg">
<path d="M9 17.75C8.72917 17.75 8.50521 17.6615 8.32812 17.4844C8.15104 17.3073 8.0625 17.0833 8.0625 16.8125V9.9375H1.1875C0.916667 9.9375 0.692708 9.84896 0.515625 9.67188C0.338542 9.49479 0.25 9.27083 0.25 9C0.25 8.72917 0.338542 8.50521 0.515625 8.32812C0.692708 8.15104 0.916667 8.0625 1.1875 8.0625H8.0625V1.1875C8.0625 0.916667 8.15104 0.692708 8.32812 0.515625C8.50521 0.338542 8.72917 0.25 9 0.25C9.27083 0.25 9.49479 0.338542 9.67188 0.515625C9.84896 0.692708 9.9375 0.916667 9.9375 1.1875V8.0625H16.8125C17.0833 8.0625 17.3073 8.15104 17.4844 8.32812C17.6615 8.50521 17.75 8.72917 17.75 9C17.75 9.27083 17.6615 9.49479 17.4844 9.67188C17.3073 9.84896 17.0833 9.9375 16.8125 9.9375H9.9375V16.8125C9.9375 17.0833 9.84896 17.3073 9.67188 17.4844C9.49479 17.6615 9.27083 17.75 9 17.75Z" fill="#0094D9"/>
</svg>
